<?xml version="1.0" standalone="no"?>
<!DOCTYPE svg PUBLIC "-//W3C//DTD SVG 20010904//EN"
 "http://www.w3.org/TR/2001/REC-SVG-20010904/DTD/svg10.dtd">
<svg version="1.0" xmlns="http://www.w3.org/2000/svg"
 width="260.000000pt" height="260.000000pt" viewBox="0 0 260.000000 260.000000"
 preserveAspectRatio="xMidYMid meet">
<metadata>
Created by potrace 1.11, written by Peter Selinger 2001-2013
</metadata>
<g transform="translate(0.000000,260.000000) scale(0.100000,-0.100000)"
fill="#000000" stroke="none">
<path d="M1403 2250 c-195 -29 -399 -136 -546 -287 -146 -149 -244 -359 -264
-562 -4 -41 -12 -70 -21 -77 -34 -25 -252 -104 -317 -115 -38 -6 -85 -17 -103
-25 -37 -15 -56 -53 -43 -86 21 -53 73 -77 180 -83 30 -1 49 -8 58 -21 12 -17
11 -21 -10 -40 -14 -12 -46 -24 -75 -28 -27 -3 -66 -17 -85 -30 -19 -14 -37
-23 -39 -21 -2 2 -3 -17 -3 -44 0 -103 47 -130 236 -136 200 -6 206 -24 51
-154 -71 -60 -95 -99 -86 -135 15 -62 77 -75 177 -39 37 13 72 21 77 18 6 -3
10 -1 10 6 0 7 10 9 25 7 13 -3 26 -1 27 3 5 14 141 36 276 45 48 3 103 7 122
8 32 2 156 -45 146 -55 -3 -2 7 -5 20 -5 13 -1 32 -5 42 -9 9 -5 28 -10 42
-12 13 -2 27 -7 30 -11 3 -4 14 -7 25 -8 11 0 43 -4 70 -8 115 -17 280 -2 398
34 34 11 65 19 70 19 4 1 42 19 84 42 339 179 533 497 531 867 -1 206 -65 395
-187 560 -136 182 -335 316 -541 363 -25 6 -54 13 -65 16 -35 8 -258 11 -312
3z"/>
</g>
</svg>
